<svg width="86" height="86" viewBox="0 0 86 86" fill="none" xmlns="http://www.w3.org/2000/svg">
<g clip-path="url(#clip0_1_2)">
<rect width="86" height="86" fill="white"/>
<rect x="3.5" y="3.5" width="79" height="79" rx="8.5" fill="black" stroke="black" stroke-width="7"/>
<path d="M17.016 52C16.8107 51.4213 16.6147 50.8893 16.428 50.404C16.26 49.9187 16.092 49.452 15.924 49.004C15.7747 48.5373 15.616 48.0613 15.448 47.576C15.2987 47.072 15.14 46.5213 14.972 45.924C14.7853 46.5213 14.6173 47.0627 14.468 47.548C14.3187 48.0147 14.16 48.4813 13.992 48.948C13.8427 49.4147 13.684 49.8907 13.516 50.376C13.348 50.8613 13.1427 51.4027 12.9 52H10.296C10.072 51.1787 9.85733 50.2733 9.652 49.284C9.46533 48.276 9.288 47.212 9.12 46.092C8.952 44.9533 8.80267 43.7773 8.672 42.564C8.54133 41.3507 8.42 40.1093 8.308 38.84H11.248C11.3227 40.464 11.3973 42.0507 11.472 43.6C11.5653 45.1493 11.724 46.7453 11.948 48.388C12.1907 47.6787 12.396 47.0253 12.564 46.428C12.7507 45.812 12.9093 45.2333 13.04 44.692C13.1893 44.132 13.32 43.6 13.432 43.096C13.5627 42.5733 13.6933 42.0413 13.824 41.5H16.316C16.428 42.0413 16.54 42.5733 16.652 43.096C16.7827 43.6 16.9133 44.132 17.044 44.692C17.1933 45.2333 17.3427 45.812 17.492 46.428C17.66 47.0253 17.856 47.6787 18.08 48.388C18.192 47.5293 18.2853 46.708 18.36 45.924C18.4347 45.14 18.4907 44.3653 18.528 43.6C18.584 42.816 18.6213 42.0413 18.64 41.276C18.6773 40.492 18.7147 39.68 18.752 38.84H21.692C21.4867 41.3973 21.1973 43.8053 20.824 46.064C20.4693 48.3227 20.068 50.3013 19.62 52H17.016ZM29.028 49.536C29.4013 49.536 29.7653 49.536 30.12 49.536C30.4747 49.5173 30.7827 49.4893 31.044 49.452V46.428C30.82 46.3907 30.5493 46.3627 30.232 46.344C29.9147 46.3067 29.6253 46.288 29.364 46.288C29.0093 46.288 28.664 46.316 28.328 46.372C27.992 46.4093 27.6933 46.484 27.432 46.596C27.1893 46.708 26.9933 46.8667 26.844 47.072C26.6947 47.2773 26.62 47.548 26.62 47.884C26.62 48.4813 26.844 48.9107 27.292 49.172C27.74 49.4147 28.3187 49.536 29.028 49.536ZM28.72 38.504C29.8027 38.504 30.6987 38.6347 31.408 38.896C32.136 39.1387 32.7147 39.4933 33.144 39.96C33.5733 40.408 33.8813 40.968 34.068 41.64C34.2547 42.2933 34.348 43.0307 34.348 43.852V51.692C33.844 51.804 33.0973 51.9347 32.108 52.084C31.1187 52.2333 30.008 52.308 28.776 52.308C27.936 52.308 27.1707 52.2333 26.48 52.084C25.808 51.9347 25.2293 51.692 24.744 51.356C24.2587 51.0013 23.8853 50.5533 23.624 50.012C23.3627 49.452 23.232 48.7707 23.232 47.968C23.232 47.2027 23.3813 46.5587 23.68 46.036C23.9787 45.5133 24.38 45.0933 24.884 44.776C25.388 44.4587 25.9667 44.2347 26.62 44.104C27.2733 43.9547 27.9547 43.88 28.664 43.88C29.56 43.88 30.3533 43.9547 31.044 44.104V43.684C31.044 43.0307 30.8387 42.4893 30.428 42.06C30.0173 41.612 29.308 41.388 28.3 41.388C27.6467 41.388 27.012 41.4347 26.396 41.528C25.7987 41.6213 25.3133 41.7333 24.94 41.864L24.464 39.092C24.8933 38.9427 25.5 38.812 26.284 38.7C27.068 38.5693 27.88 38.504 28.72 38.504ZM49.216 38.84C48.8613 40.072 48.516 41.2853 48.18 42.48C47.8627 43.656 47.5267 44.8133 47.172 45.952C46.8173 47.072 46.4347 48.1733 46.024 49.256C45.632 50.3387 45.2027 51.3933 44.736 52.42C44.3813 53.1667 44.0267 53.8107 43.672 54.352C43.336 54.8933 42.9533 55.332 42.524 55.668C42.1133 56.0227 41.6467 56.284 41.124 56.452C40.62 56.62 40.0227 56.704 39.332 56.704C38.7533 56.704 38.2213 56.6573 37.736 56.564C37.2693 56.4707 36.8773 56.3493 36.56 56.2L37.204 53.316C37.5773 53.484 37.904 53.596 38.184 53.652C38.4827 53.7267 38.8 53.764 39.136 53.764C39.808 53.764 40.3493 53.54 40.76 53.092C41.1707 52.644 41.4973 52.112 41.74 51.496C40.9187 49.8533 40.0973 47.9773 39.276 45.868C38.4547 43.74 37.708 41.3973 37.036 38.84H40.62C40.788 39.5307 40.9747 40.268 41.18 41.052C41.404 41.836 41.6373 42.62 41.88 43.404C42.1227 44.188 42.3747 44.9627 42.636 45.728C42.916 46.4747 43.196 47.1747 43.476 47.828C43.6627 47.1747 43.8587 46.4747 44.064 45.728C44.2693 44.9627 44.4653 44.1973 44.652 43.432C44.8387 42.648 45.016 41.864 45.184 41.08C45.3707 40.296 45.5387 39.5493 45.688 38.84H49.216ZM51.764 39.26C52.38 39.092 53.136 38.9333 54.032 38.784C54.9467 38.6347 55.936 38.56 57 38.56C58.0453 38.56 58.9133 38.7093 59.604 39.008C60.2947 39.288 60.836 39.6987 61.228 40.24C61.6387 40.7627 61.928 41.3973 62.096 42.144C62.264 42.872 62.348 43.684 62.348 44.58V52H58.904V45.028C58.904 43.796 58.764 42.9093 58.484 42.368C58.204 41.8267 57.6347 41.556 56.776 41.556C56.5147 41.556 56.2533 41.5653 55.992 41.584C55.7493 41.6027 55.488 41.6307 55.208 41.668V52H51.764V39.26ZM64.868 45.532C64.868 44.3747 65.0453 43.3573 65.4 42.48C65.7547 41.6027 66.2213 40.8747 66.8 40.296C67.3787 39.6987 68.0413 39.2507 68.788 38.952C69.5347 38.6533 70.3 38.504 71.084 38.504C73.0253 38.504 74.5 39.0827 75.508 40.24C76.516 41.3787 77.02 43.0493 77.02 45.252C77.02 45.476 77.0107 45.7093 76.992 45.952C76.992 46.1947 76.9827 46.3907 76.964 46.54H68.424C68.424 47.3987 68.7787 48.08 69.488 48.584C70.1973 49.0693 71.112 49.312 72.232 49.312C72.9227 49.312 73.576 49.2373 74.192 49.088C74.8267 48.9387 75.3587 48.7893 75.788 48.64L76.264 51.58C75.6667 51.7853 75.032 51.9533 74.36 52.084C73.688 52.2333 72.932 52.308 72.092 52.308C70.972 52.308 69.964 52.168 69.068 51.888C68.1907 51.5893 67.4347 51.16 66.8 50.6C66.184 50.0213 65.708 49.312 65.372 48.472C65.036 47.632 64.868 46.652 64.868 45.532ZM73.688 44.16C73.688 43.8053 73.6413 43.4693 73.548 43.152C73.4547 42.816 73.3053 42.5173 73.1 42.256C72.8947 41.9947 72.6333 41.7893 72.316 41.64C71.9987 41.472 71.6067 41.388 71.14 41.388C70.692 41.388 70.3 41.4627 69.964 41.612C69.6467 41.7613 69.376 41.9667 69.152 42.228C68.9467 42.4893 68.7787 42.788 68.648 43.124C68.536 43.46 68.4613 43.8053 68.424 44.16H73.688Z" fill="white"/>
</g>
<defs>
<clipPath id="clip0_1_2">
<rect width="86" height="86" fill="white"/>
</clipPath>
</defs>
</svg>
